# xmcd CD database file
#
# Track frame offsets:
#	150
#	22771
#	48836
#	86585
#	106390
#	127524
#	155419
#	187046
#	207873
#	226324
#	246442
#
# Disc length: 3563 seconds
#
# Revision: 0
# Processed by: cddbd v1.4PL0 Copyright (c) Steve Scherf et al.
# Submitted via: CDex 1.50beta10
#
DISCID=800de90b
DTITLE=Bob Dylan - Looking For Maurice Chevalier's Passport In America Disc Two
DYEAR=2002
DGENRE=Blues
TTITLE0=A Voice From On High
TTITLE1=Under The Red Sky
TTITLE2=Tears Of Rage
TTITLE3=To Be Alone With You
TTITLE4=Man In The Long Black Coat
TTITLE5='Til I Fell In Love With You
TTITLE6=Most Likely You Go Your Way
TTITLE7=Quinn The Eskimo
TTITLE8=Tell Me That It Isn't True
TTITLE9=Roving Gambler
TTITLE10=Down In The Flood
EXTD=YEAR: 2002
EXTT0=
EXTT1=
EXTT2=
EXTT3=
EXTT4=
EXTT5=
EXTT6=
EXTT7=
EXTT8=
EXTT9=
EXTT10=
PLAYORDER=
